<?xml version="1.0" encoding="UTF-8"?>
<svg width="32" height="32" version="1.1" viewBox="0 0 8.4667 8.4667" xmlns="http://www.w3.org/2000/svg" xmlns:cc="http://creativecommons.org/ns#" xmlns:rdf="http://www.w3.org/1999/02/22-rdf-syntax-ns#" xmlns:xlink="http://www.w3.org/1999/xlink">
<defs>
<linearGradient id="a" x1="4.9708" x2="6.2447" y1=".22111" y2="4.2309" gradientUnits="userSpaceOnUse">
<stop stop-opacity=".4129" offset="0"/>
<stop stop-color="#f9f9f9" stop-opacity="0" offset="1"/>
</linearGradient>
</defs>
<path d="m5.0271 0.52917 1.8521 1.8521h-1.8521z" fill="#ccc" stroke-width=".26458"/>
<path d="m1.5875 7.9375h5.2917v-5.5562h-1.8521v-1.8521h-3.4396z" fill="#ececec" stroke-width=".26458"/>
<rect x="1.5875" y=".52917" width="3.4396" height=".26458" fill="#f9f9f9" stroke-width=".26458"/>
<path d="m5.0271 2.3812 1.8521 1.8521v-1.8521z" fill="url(#a)" stroke-width=".28892"/>
<rect x="1.5875" y="7.6671" width="5.2917" height=".26458" fill="#ccc" stroke-width=".28892"/>
<g transform="matrix(.054688 0 0 .054688 .81675 2.5286)">
<circle cx="62.475" cy="40.849" r="33.867" fill="#00acff"/>
<path d="m59.045 67.761c-4.7441-0.60875-9.282-2.4999-13.242-5.5186-1.2916-0.98455-3.7149-3.4236-4.7728-4.8038-2.9624-3.8648-4.8045-8.2508-5.4122-12.887-0.26016-1.9846-0.25872-5.6335 0.0029-7.4474 1.3081-9.0677 7.0146-16.845 15.209-20.729 3.8115-1.8065 7.3003-2.5711 11.731-2.5711 7.1659 0 13.526 2.5675 18.681 7.5406 2.4831 2.3958 4.1481 4.6681 5.574 7.6068 1.9287 3.9751 2.7098 7.4328 2.7098 11.995 0 6.0062-1.7345 11.244-5.337 16.117-1.0705 1.448-3.1617 3.6475-4.5495 4.7851-3.8066 3.1204-8.6586 5.2318-13.473 5.863-1.6635 0.21807-5.5933 0.24524-7.1209 0.0492zm10.041-4.8655c2.8984-0.91366 5.2604-2.1415 7.5406-3.9198 1.2125-0.9456 3.3082-3.0614 4.1869-4.2271 2.3833-3.1616 4.0049-7.122 4.4821-10.946 0.22981-1.8418 0.09634-5.7383-0.2545-7.4296-0.9294-4.4805-2.9316-8.265-6.086-11.503-1.9666-2.019-3.7569-3.3497-6.0602-4.5046-3.495-1.7524-6.4898-2.4604-10.423-2.4644-4.1641-4e-3 -7.8153 0.95024-11.429 2.9877-3.2898 1.8548-6.6906 5.2595-8.5532 8.563-1.3718 2.433-2.3758 5.3203-2.7676 7.9587-0.25687 1.7299-0.26193 5.1651-0.01006 6.8214 0.50407 3.3149 1.7615 6.5911 3.5843 9.339 0.99541 1.5006 0.96415 1.4839 1.8422 0.98153 1.5708-0.8987 1.9804-1.3334 2.8361-3.0098 1.0006-1.9604 2.0705-3.6735 3.0371-4.8633 1.1158-1.3735 1.2692-1.6179 1.829-2.9147 0.28165-0.65249 0.78698-1.6107 1.1229-2.1294l0.61084-0.94309-0.79023-0.77671c-1.0496-1.0317-1.9228-2.2016-2.087-2.7965-0.16776-0.60758 0.03021-0.9466 0.81874-1.4021 0.79735-0.46057 1.3676-0.5929 3.4987-0.81193 1.0376-0.10665 2.1642-0.30199 2.519-0.43681 0.35302-0.13414 1.4078-0.70824 2.344-1.2758 2.7029-1.6386 2.9316-1.7234 4.5521-1.6883 1.3687 0.0297 1.3713 0.0291 2.1828-0.46143 1.7007-1.028 4.143-2.8829 7.357-5.5873 0.61632-0.5186 1.21-0.92569 1.3193-0.90464 0.45462 0.0876 1.2896 2.1364 1.4164 3.4756 0.07693 0.81225-0.08023 1.6155-0.56201 2.8726-0.13146 0.34301-0.19208 0.67043-0.13471 0.7276 0.13774 0.13726 0.61071-0.4535 0.61071-0.76279 0-0.39435 0.26113-0.43936 0.61633-0.10623 0.25824 0.24218 0.48084 0.31151 1.0002 0.31151 0.56707 0 0.70745 0.0526 0.92877 0.3479 0.37557 0.50112 0.46365 1.8669 0.1762 2.7323-0.27964 0.84191-1.1248 1.8129-1.8918 2.1734-0.68633 0.32262-2.0758 1.6793-2.7261 2.6616-0.24891 0.37604-0.71559 1.16-1.0371 1.742-0.32149 0.58208-0.86074 1.4615-1.1983 1.9544-0.66429 0.96972-1.2331 2.3224-1.7822 4.238-0.32255 1.1253-0.34962 1.4183-0.36295 3.928-0.01613 3.0317-0.17289 3.7756-0.9925 4.7091-0.9318 1.0613-1.8619 3.3919-1.9401 4.8613-0.04935 0.92751-0.19225 1.8316-0.3953 2.5012-0.08942 0.29484 0.07752 0.2914 1.0721-0.0221z" fill="#fff" stroke-width=".13229"/>
<path transform="matrix(.23203 .40189 -.99393 .57385 232.72 -73.028)" d="m18.854 174.59-1.6036-1.6036 1.6036-1.6036 1.6036 1.6036z" fill="#00acff"/>
</g>
<metadata>
<rdf:RDF>
<cc:Work rdf:about="">
<cc:license rdf:resource="https://www.mozilla.org/en-US/MPL/2.0/"/>
</cc:Work>
</rdf:RDF>
</metadata>
</svg>
