<?xml version="1.0" encoding="UTF-8"?>
<svg width="32" height="32" version="1.1" viewBox="0 0 8.4667 8.4667" xmlns="http://www.w3.org/2000/svg" xmlns:cc="http://creativecommons.org/ns#" xmlns:rdf="http://www.w3.org/1999/02/22-rdf-syntax-ns#" xmlns:xlink="http://www.w3.org/1999/xlink">
<defs>
<linearGradient id="a" x1="4.9708" x2="6.2447" y1=".22111" y2="4.2309" gradientUnits="userSpaceOnUse">
<stop stop-opacity=".4129" offset="0"/>
<stop stop-color="#f9f9f9" stop-opacity="0" offset="1"/>
</linearGradient>
</defs>
<path d="m1.5875 7.9375h5.2917v-5.5562h-1.8521v-1.8521h-3.4396z" fill="#ececec" stroke-width=".26458"/>
<rect x="1.5875" y=".52917" width="3.4396" height=".26458" fill="#f9f9f9" stroke-width=".26458"/>
<g transform="matrix(.039062 0 0 .039062 1.7929 1.5793)">
<path d="m61.744 30.691c-4.0539 0.09079-7.3519 0.8745-10.931 2.5712-8.207 3.8909-13.927 11.684-15.237 20.768-0.26202 1.8172-0.26056 5.4734 0 7.4617 0.60862 4.6443 2.452 9.037 5.4189 12.909 1.0595 1.3827 3.4894 3.8246 4.783 4.811 3.966 3.0242 8.5112 4.9168 13.262 5.5267 1.5299 0.1964 5.462 0.17871 7.1281-0.03976 4.8218-0.63229 9.6754-2.7584 13.488-5.8845 1.3898-1.1397 3.4856-3.3339 4.5577-4.7845 3.6079-4.8816 5.3527-10.139 5.3527-16.156 0-4.5709-0.78449-8.0252-2.7161-12.008-1.428-2.9441-3.0911-5.2206-5.5779-7.6207-5.1622-4.9823-11.531-7.5545-18.708-7.5545-0.27732 0-0.55119-6e-3 -0.82145 0zm0.72871 4.0953c3.9396 4e-3 6.9401 0.72282 10.44 2.4784 2.3068 1.157 4.0986 2.4835 6.0682 4.5062 3.1591 3.2444 5.1638 7.0418 6.0947 11.53 0.35137 1.6944 0.4819 5.59 0.25174 7.4352-0.47786 3.831-2.1046 7.8064-4.4915 10.974-0.88003 1.1678-2.9724 3.2805-4.1868 4.2278-2.2837 1.7816-4.6493 3.0209-7.5521 3.9363-0.99609 0.31407-1.1627 0.30863-1.0732 0.01325 0.20337-0.67081 0.34805-1.5757 0.39748-2.5049 0.07831-1.4721 1.0012-3.8008 1.9344-4.864 0.82085-0.9352 0.97754-1.681 0.9937-4.7182 0.01335-2.5143 0.04794-2.8089 0.37098-3.9363 0.5499-1.9191 1.1101-3.2829 1.7754-4.2544 0.33811-0.49372 0.88371-1.3651 1.2057-1.9483 0.32197-0.58316 0.78416-1.3727 1.0334-1.7495 0.65123-0.98416 2.0552-2.3407 2.7426-2.6639 0.76819-0.3612 1.6146-1.3301 1.8946-2.1736 0.28788-0.86702 0.19066-2.2414-0.18549-2.7435-0.22166-0.29584-0.35951-0.34459-0.92745-0.34459-0.52015 0-0.74832-0.07546-1.0069-0.31808-0.35574-0.33374-0.60947-0.28905-0.60947 0.10603 0 0.30986-0.47152 0.90621-0.60947 0.7687-0.05746-0.05728 8.33e-4 -0.3853 0.13249-0.72894 0.48252-1.2594 0.63352-2.0623 0.55647-2.876-0.12703-1.3417-0.96236-3.3979-1.4177-3.4857-0.10949-0.02109-0.70767 0.38168-1.3249 0.90123-3.2189 2.7094-5.6633 4.5763-7.3666 5.6062-0.81278 0.49143-0.81536 0.49362-2.1861 0.46387-1.623-0.03519-1.8507 0.04156-4.5577 1.6832-0.9376 0.56859-1.9916 1.1512-2.3451 1.2856-0.35535 0.13507-1.4782 0.33052-2.5174 0.43736-2.1343 0.21943-2.7125 0.34705-3.5111 0.80846-0.78973 0.4563-0.98947 0.79617-0.82145 1.4049 0.16451 0.596 1.0421 1.7629 2.0934 2.7965l0.79496 0.78195-0.60947 0.941c-0.33647 0.51964-0.8441 1.4801-1.1262 2.1338-0.56061 1.2991-0.71088 1.553-1.8284 2.929-0.9681 1.192-2.0452 2.9001-3.0473 4.864-0.85699 1.6795-1.2622 2.1214-2.8353 3.0218-0.87943 0.50332-0.85798 0.52258-1.8549-0.98076-1.8256-2.753-3.0857-6.036-3.5905-9.3569-0.25226-1.6594-0.24401-5.1057 0.01325-6.8388 0.39236-2.6432 1.3952-5.5411 2.7691-7.9786 1.8654-3.3095 5.2775-6.7168 8.5723-8.575 3.6192-2.0412 7.277-2.9993 11.447-2.9953zm4.2795 15.029-1.2189 1.5639-1.9741 0.27832 1.2322-1.5639z" fill="#ccc" stroke-width=".13251"/>
</g>
<path d="m5.0271 2.3812 1.8521 1.8521v-1.8521z" fill="url(#a)" stroke-width=".28892"/>
<rect x="1.5875" y="7.6671" width="5.2917" height=".26458" fill="#ccc" stroke-width=".28892"/>
<rect x="1.3229" y="5.2917" width="5.8208" height="2.3812" fill="#ff2a2a" stroke-width=".31858"/>
<text transform="scale(1.0341 .96705)" x="1.9228905" y="7.5239768" fill="#ff2a2a" font-size="2.3091px" stroke-width=".21012" xml:space="preserve"><tspan x="1.9228905" y="7.5239768" fill="#ffaaaa" font-family="Roboto" font-weight="900" stroke-width=".21012">PDF</tspan></text>
<path d="m5.0271 0.52917 1.8521 1.8521h-1.8521z" fill="#ccc" stroke-width=".26458"/>
<metadata>
<rdf:RDF>
<cc:Work rdf:about="">
<cc:license rdf:resource="https://www.mozilla.org/en-US/MPL/2.0/"/>
</cc:Work>
</rdf:RDF>
</metadata>
</svg>
