<svg xmlns="http://www.w3.org/2000/svg" viewBox="0 0 16 16" width="16" height="16" fill="context-fill" fill-opacity="context-fill-opacity">
<style>
.nova { display: none; }

@media -moz-pref("browser.nova.enabled") {
  .proton { display: none; }
  .nova { display: revert; }
}
</style>
<g class="proton">
  <path d="M15.817 14.933 1.067.183a.626.626 0 0 0-.885.885l1.046 1.046A1.945 1.945 0 0 0 1 3l0 10a2 2 0 0 0 2 2l10 0c.323 0 .618-.092.886-.229l1.046 1.046a.627.627 0 0 0 .885 0 .625.625 0 0 0 0-.884zM2.85 13.75l-.6-.6 0-10.015L6.236 7.12 4.218 9.15A.749.749 0 0 0 4 9.679L4 11a1 1 0 0 0 1 1l6.115 0 1.75 1.75-10.015 0z"/>
  <path d="m13.15 2.25.6.6 0 8.245 1.25 1.25L15 3a2 2 0 0 0-2-2L3.655 1l1.25 1.25 8.245 0z"/>
  <path d="m11.6 5-1.2 0-.4.4 0 1.2.4.4 1.2 0 .4-.4 0-1.2z"/>
</g>
<g class="nova">
  <path fill-rule="evenodd" clip-rule="evenodd" d="M0.404418 0.404422C0.562443 0.246593 0.776654 0.157942 0.999996 0.157942C1.22334 0.157942 1.43755 0.246593 1.59557 0.404422L15.6912 14.5C15.774 14.5772 15.8404 14.6702 15.8864 14.7736C15.9325 14.877 15.9573 14.9886 15.9593 15.1017C15.9613 15.2149 15.9404 15.3273 15.8981 15.4322C15.8557 15.5372 15.7926 15.6325 15.7125 15.7126C15.6325 15.7926 15.5372 15.8557 15.4322 15.8981C15.3273 15.9405 15.2149 15.9613 15.1017 15.9593C14.9886 15.9573 14.877 15.9325 14.7736 15.8864C14.6702 15.8404 14.5772 15.774 14.5 15.6912L14.0932 15.2844C13.7999 15.4237 13.4808 15.5204 13.1426 15.5586C9.72769 15.9527 6.27889 15.9539 2.86377 15.562C2.10916 15.4753 1.41279 15.1141 0.907349 14.5471C0.401908 13.9801 0.122723 13.247 0.12299 12.4874V3.48745C0.12299 2.86939 0.303911 2.29292 0.617432 1.80971L0.404418 1.59558C0.246589 1.43755 0.157938 1.22334 0.157938 1C0.157938 0.776657 0.246589 0.562447 0.404418 0.404422ZM1.87264 3.0638C1.83069 3.19865 1.80934 3.33986 1.80859 3.48745V12.4874C1.80859 13.2044 2.34348 13.8067 3.05593 13.8876C6.26566 14.2549 9.50638 14.2624 12.7178 13.9101L11.2345 12.4267C11.0918 12.4645 10.9449 12.4834 10.7973 12.4829H5.17866C4.732 12.4826 4.30372 12.3051 3.98789 11.9892C3.67205 11.6734 3.49448 11.2451 3.49419 10.7985V10.2703C3.49419 9.78822 3.64926 9.31962 3.93469 8.93306L5.5214 6.7856C5.53189 6.77137 5.54313 6.75826 5.55511 6.74627L1.87264 3.0638Z" />
  <path d="M3 0.235694C6.36199 -0.0969758 9.75043 -0.0774344 13.1082 0.293989C13.9049 0.384187 14.64 0.759417 15.1733 1.34815C15.7066 1.93688 16.0009 2.69793 16 3.48623V12.8239C16 12.8846 15.9881 12.9405 15.9834 13L14.2208 11.2663V3.48507C14.2208 2.74122 13.6562 2.1163 12.9042 2.03235C11.1755 1.83862 9.437 1.74092 7.69708 1.73971C6.68056 1.73971 5.66049 1.78401 4.64279 1.85047L3 0.235694Z" />
  <path d="M11 5C11.2652 5 11.5196 5.10536 11.7071 5.29289C11.8946 5.48043 12 5.73478 12 6C12 6.26522 11.8946 6.51957 11.7071 6.70711C11.5196 6.89464 11.2652 7 11 7C10.7348 7 10.4804 6.89464 10.2929 6.70711C10.1054 6.51957 10 6.26522 10 6C10 5.73478 10.1054 5.48043 10.2929 5.29289C10.4804 5.10536 10.7348 5 11 5Z" />
</g>
</svg>
